# xmcd CD database file
#
# Track frame offsets:
#	150
#	24603
#	43122
#	81596
#	111595
#	142352
#	159446
#	176613
#	192980
#	225544
#	247459
#	269086
#	299606
#
# Disc length: 4398 seconds
#
# Revision: 0
# Processed by: cddbd v1.5.2PL0 Copyright (c) Steve Scherf et al.
# Submitted via: CDex 1.70beta2
#
DISCID=d7112c0d
DTITLE=Abbey Lincoln - Straight Ahead
DYEAR=1961
DGENRE=Jazz
TTITLE0=Straight Ahead
TTITLE1=When Malindy Sings
TTITLE2=In the Red
TTITLE3=Blue Monk
TTITLE4=Left Alone
TTITLE5=African Lady
TTITLE6=Retribution
TTITLE7=African Lady (alternate take)
TTITLE8=Tain't Nobody's Bizness If I Do
TTITLE9=I Concentrate on You
TTITLE10=I Concentrate on You (alternate take)
TTITLE11=Never Leave Me
TTITLE12=Never Leave Me (alternate take)
EXTD=YEAR: 1961
EXTT0=
EXTT1=
EXTT2=
EXTT3=
EXTT4=
EXTT5=
EXTT6=
EXTT7=
EXTT8=
EXTT9=
EXTT10=
EXTT11=
EXTT12=
PLAYORDER=
